<svg xmlns="http://www.w3.org/2000/svg" viewBox="0 0 376.67 307.23"><defs><style>.cls-1{fill:#f15e5c;}.cls-1,.cls-2,.cls-3,.cls-6,.cls-7,.cls-8,.cls-9{stroke:#231f20;stroke-width:2px;}.cls-1,.cls-2,.cls-3,.cls-4,.cls-6,.cls-8,.cls-9{stroke-miterlimit:10;}.cls-2{fill:#3c3d3d;}.cls-3{fill:#e5f5fa;}.cls-4,.cls-6{fill:none;}.cls-4{stroke:#a7d1e0;stroke-width:5px;}.cls-4,.cls-7{stroke-linecap:round;}.cls-5{fill:#ccecfa;}.cls-7{fill:#009796;stroke-linejoin:round;}.cls-8{fill:#fff;}.cls-9{fill:#414042;}</style></defs><g id="Layer_2" data-name="Layer 2"><g id="Canvas"><g id="Typewriter"><g id="Typewriter_Back" data-name="Typewriter Back"><path id="Back_Frame" data-name="Back Frame" class="cls-1" d="M358.33,63.74v-14a5.54,5.54,0,0,0-5.55-5.55H23.89a5.55,5.55,0,0,0-5.56,5.55v14"/><path id="Left_Upper_Nail" data-name="Left Upper Nail" class="cls-2" d="M1,63.74V61.61a4,4,0,0,1,4.05-4H18.33v6.18"/><path id="Right_Upper_Nail" data-name="Right Upper Nail" class="cls-2" d="M358.33,63.74V57.56h13.28a4.05,4.05,0,0,1,4.06,4v2.13"/><path id="Output_Top" data-name="Output Top" class="cls-2" d="M72.33,63.74h0a6.19,6.19,0,0,1,6.19-6.18H298.15a6.18,6.18,0,0,1,6.18,6.18h0"/></g><g id="Paper"><polygon id="Flat" class="cls-3" points="293.99 49 294.33 274.67 81 274.67 81 1 245.23 1 246 1.01 293.99 49 293.99 49"/><g id="Content"><line class="cls-4" x1="108.89" y1="232.11" x2="193.82" y2="232.11"/><line class="cls-4" x1="108.89" y1="219" x2="172.66" y2="219"/><line class="cls-4" x1="108.89" y1="185.7" x2="210.34" y2="185.7"/><line class="cls-4" x1="108.89" y1="172.86" x2="240.49" y2="172.86"/><line class="cls-4" x1="162.8" y1="158.98" x2="268.02" y2="158.98"/><line class="cls-4" x1="108.89" y1="158.98" x2="147.15" y2="158.98"/><line class="cls-4" x1="268.02" y1="146.15" x2="108.89" y2="146.15"/><line class="cls-4" x1="108.89" y1="133.32" x2="268.02" y2="133.32"/><line class="cls-4" x1="109.9" y1="112.68" x2="146.43" y2="112.68"/><line class="cls-4" x1="269.04" y1="100.14" x2="109.9" y2="100.14"/><line class="cls-4" x1="109.9" y1="86.6" x2="269.04" y2="86.6"/><line class="cls-4" x1="229.91" y1="73.06" x2="269.91" y2="73.06"/><line class="cls-4" x1="109.9" y1="73.06" x2="209.91" y2="73.06"/><line class="cls-4" x1="109.76" y1="41.73" x2="170.05" y2="41.73"/><line class="cls-4" x1="109.76" y1="28.84" x2="150.34" y2="28.84"/></g><g id="Corner"><polygon class="cls-5" points="293.94 48.95 293.9 48.98 246.34 48.98 246 1.01 293.94 48.95"/><polyline class="cls-6" points="293.9 48.98 246.34 48.98 245.91 48.98"/><polyline class="cls-6" points="293.99 49 293.94 48.95 246 1.01"/><polyline class="cls-6" points="246.34 48.99 246.34 48.98 246 1.01"/></g></g><g id="Typewriter_Front" data-name="Typewriter Front"><g id="Base"><path class="cls-7" d="M338.33,88.61V299a7.28,7.28,0,0,1-7.28,7.28H44.28A7.28,7.28,0,0,1,37,299V88.61"/><line class="cls-8" x1="37" y1="274.23" x2="338.33" y2="274.23"/><g id="Keyboard"><rect id="Key" class="cls-9" x="104.89" y="237" width="162.67" height="16" rx="8"/><rect class="cls-9" x="95" y="195.33" width="24.22" height="15.22" rx="7.61"/><rect class="cls-9" x="56.33" y="195.33" width="24.22" height="15.22" rx="7.61"/><rect class="cls-9" x="134.33" y="195.33" width="24.22" height="15.22" rx="7.61"/><rect class="cls-9" x="172.11" y="195.33" width="24.22" height="15.22" rx="7.61"/><rect class="cls-9" x="210.61" y="195.33" width="24.22" height="15.22" rx="7.61"/><rect class="cls-9" x="249.5" y="195.33" width="24.22" height="15.22" rx="7.61"/><rect class="cls-9" x="290.17" y="195.33" width="24.22" height="15.22" rx="7.61"/><rect class="cls-9" x="76.07" y="169.34" width="24.22" height="15.22" rx="7.61"/><rect class="cls-9" x="115.4" y="169.34" width="24.22" height="15.22" rx="7.61"/><rect class="cls-9" x="154.73" y="169.34" width="24.22" height="15.22" rx="7.61"/><rect class="cls-9" x="194.05" y="169.34" width="24.22" height="15.22" rx="7.61"/><rect class="cls-9" x="233.38" y="169.34" width="24.22" height="15.22" rx="7.61"/><rect class="cls-9" x="272.71" y="169.34" width="24.22" height="15.22" rx="7.61"/><rect class="cls-9" x="57.47" y="142.72" width="24.22" height="15.22" rx="7.61"/><rect class="cls-9" x="96.14" y="142.72" width="24.22" height="15.22" rx="7.61"/><rect class="cls-9" x="135.47" y="142.72" width="24.22" height="15.22" rx="7.61"/><rect class="cls-9" x="173.25" y="142.72" width="24.22" height="15.22" rx="7.61"/><rect class="cls-9" x="211.75" y="142.72" width="24.22" height="15.22" rx="7.61"/><rect class="cls-9" x="250.64" y="142.72" width="24.22" height="15.22" rx="7.61"/><rect class="cls-9" x="291.31" y="142.72" width="24.22" height="15.22" rx="7.61"/><rect class="cls-9" x="271.54" y="115.89" width="24.22" height="15.22" rx="7.61"/><rect class="cls-9" x="74.9" y="115.89" width="24.22" height="15.22" rx="7.61"/><rect class="cls-9" x="114.23" y="115.89" width="24.22" height="15.22" rx="7.61"/><rect class="cls-9" x="153.56" y="115.89" width="24.22" height="15.22" rx="7.61"/><rect class="cls-9" x="192.89" y="115.89" width="24.22" height="15.22" rx="7.61"/><rect class="cls-9" x="232.21" y="115.89" width="24.22" height="15.22" rx="7.61"/></g></g><g id="Ruler"><path id="Front_Frame" data-name="Front Frame" class="cls-1" d="M18.33,63.74V82.67a5.56,5.56,0,0,0,5.56,5.56H352.78a5.55,5.55,0,0,0,5.55-5.56V63.74"/><path id="Left_Borrom_Nail" data-name="Left Borrom Nail" class="cls-2" d="M18.33,63.74V74.89H4.2A3.2,3.2,0,0,1,1,71.69V63.74"/><path id="Right_Bottom_Nail" data-name="Right Bottom Nail" class="cls-2" d="M375.67,63.74v6.62a4.53,4.53,0,0,1-4.53,4.53H358.33V63.74"/><path id="Output_Bottom" data-name="Output Bottom" class="cls-2" d="M304.33,63.74h0a6.19,6.19,0,0,1-6.18,6.19H78.52a6.19,6.19,0,0,1-6.19-6.19h0"/></g></g></g></g></g></svg>
