<?xml version="1.0" encoding="iso-8859-1"?>
<!-- Generator: Adobe Illustrator 19.0.0, SVG Export Plug-In . SVG Version: 6.00 Build 0)  -->
<svg version="1.1" id="Capa_1" xmlns="http://www.w3.org/2000/svg" xmlns:xlink="http://www.w3.org/1999/xlink" x="0px" y="0px"
	 viewBox="0 0 512 512" style="enable-background:new 0 0 512 512;" xml:space="preserve">
<polygon style="fill:#C9FDFB;" points="331.33,10 109.542,10 109.542,218.486 402.46,218.486 402.46,81.13 "/>
<polygon style="fill:#34C7B4;" points="331.33,81.13 402.46,81.13 331.33,10 "/>
<path style="fill:#FFC48C;" d="M479.358,436.303H32.644c-0.096,0.001-0.192,0.002-0.288,0.002l0,0V502h447.29v-65.695l0,0
	C479.55,436.305,479.454,436.304,479.358,436.303z"/>
<path style="fill:#009796;" d="M479.361,436.304H32.641c20-0.16,36.16-16.41,36.16-36.45v-129.3h374.4v129.3
	C443.201,419.894,459.361,436.144,479.361,436.304z"/>
<rect x="38.5" y="218.49" style="fill:#F15D5C;" width="435" height="52.07"/>
<path d="M131.548,361.527h-24c-5.522,0-10-4.478-10-10s4.478-10,10-10h24c5.522,0,10,4.478,10,10S137.07,361.527,131.548,361.527z"
	/>
<path d="M199.773,361.527h-24c-5.522,0-10-4.478-10-10s4.478-10,10-10h24c5.522,0,10,4.478,10,10S205.297,361.527,199.773,361.527z"
	/>
<path d="M268.001,361.527h-24c-5.522,0-10-4.478-10-10s4.478-10,10-10h24c5.522,0,10,4.478,10,10S273.523,361.527,268.001,361.527z"
	/>
<path d="M336.228,361.527h-24c-5.522,0-10-4.478-10-10s4.478-10,10-10h24c5.522,0,10,4.478,10,10S341.75,361.527,336.228,361.527z"
	/>
<path d="M404.454,361.527h-24c-5.522,0-10-4.478-10-10s4.478-10,10-10h24c5.522,0,10,4.478,10,10S409.977,361.527,404.454,361.527z"
	/>
<path d="M165.661,405.501h-24c-5.522,0-10-4.478-10-10s4.478-10,10-10h24c5.522,0,10,4.478,10,10S171.184,405.501,165.661,405.501z"
	/>
<path d="M233.887,405.501h-24c-5.522,0-10-4.478-10-10s4.478-10,10-10h24c5.522,0,10,4.478,10,10S239.41,405.501,233.887,405.501z"
	/>
<path d="M302.114,405.501h-24c-5.522,0-10-4.478-10-10s4.478-10,10-10h24c5.522,0,10,4.478,10,10S307.637,405.501,302.114,405.501z"
	/>
<path d="M370.341,405.501h-24c-5.522,0-10-4.478-10-10s4.478-10,10-10h24c5.522,0,10,4.478,10,10S375.863,405.501,370.341,405.501z"
	/>
<path d="M165.661,317.555h-24c-5.522,0-10-4.478-10-10s4.478-10,10-10h24c5.522,0,10,4.478,10,10S171.184,317.555,165.661,317.555z"
	/>
<path d="M233.887,317.555h-24c-5.522,0-10-4.478-10-10s4.478-10,10-10h24c5.522,0,10,4.478,10,10S239.41,317.555,233.887,317.555z"
	/>
<path d="M302.114,317.555h-24c-5.522,0-10-4.478-10-10s4.478-10,10-10h24c5.522,0,10,4.478,10,10S307.637,317.555,302.114,317.555z"
	/>
<path d="M370.341,317.555h-24c-5.522,0-10-4.478-10-10s4.478-10,10-10h24c5.522,0,10,4.478,10,10S375.863,317.555,370.341,317.555z"
	/>
<path d="M479.647,426.305l-0.188-0.001c-0.033-0.001-0.067-0.001-0.101-0.001h-0.054c-14.406-0.189-26.102-12.025-26.102-26.448
	v-119.3h10.301v3.467c0,5.522,4.478,10,10,10s10-4.478,10-10V205.02c0-5.522-4.478-10-10-10s-10,4.478-10,10v3.467h-51.042V81.13
	c0-2.652-1.054-5.195-2.929-7.071l-71.131-71.13C336.525,1.054,333.982,0,331.33,0H109.542c-5.522,0-10,4.478-10,10v198.486H48.5
	v-3.467c0-5.522-4.478-10-10-10s-10,4.478-10,10v79.002c0,5.522,4.478,10,10,10s10-4.478,10-10v-3.467h10.301v119.3
	c0,14.423-11.697,26.259-26.103,26.448h-0.053c-0.033,0-0.07,0-0.104,0.001l-0.186,0.001c-5.522,0-10,4.478-10,10V502
	c0,5.522,4.478,10,10,10h447.291c5.522,0,10-4.478,10-10v-65.695C489.647,430.782,485.169,426.305,479.647,426.305z M378.317,71.13
	H341.33V34.143L378.317,71.13z M119.542,20h201.788v61.13c0,5.522,4.478,10,10,10h61.13v117.356H119.542V20z M48.5,228.486h415.002
	v32.068H48.5V228.486z M78.801,399.854v-119.3h354.4v119.3c0,9.804,3.079,18.928,8.318,26.448H70.483
	C75.722,418.783,78.801,409.658,78.801,399.854z M42.355,492l0.001-45.695h427.29V492H42.355z"/>
<path d="M351.751,135c-2.63,0-5.21-1.07-7.07-2.931c-1.87-1.859-2.93-4.439-2.93-7.069c0-0.65,0.06-1.311,0.189-1.95
	s0.32-1.27,0.57-1.87c0.25-0.61,0.56-1.189,0.92-1.729c0.37-0.551,0.79-1.061,1.25-1.521c1.86-1.86,4.44-2.93,7.07-2.93
	s5.2,1.069,7.069,2.93c1.86,1.86,2.931,4.44,2.931,7.07s-1.07,5.21-2.931,7.069C356.951,133.93,354.381,135,351.751,135z"/>
<path d="M313.514,135h-153.26c-5.522,0-10-4.478-10-10s4.478-10,10-10h153.26c5.522,0,10,4.478,10,10S319.036,135,313.514,135z"/>
<path d="M351.748,175.01H160.254c-5.522,0-10-4.478-10-10s4.478-10,10-10h191.494c5.522,0,10,4.478,10,10
	S357.271,175.01,351.748,175.01z"/>
<path d="M107.171,479.149c-0.65,0-1.311-0.069-1.95-0.199c-0.64-0.12-1.27-0.32-1.87-0.57c-0.609-0.25-1.189-0.55-1.729-0.91
	c-0.551-0.37-1.061-0.79-1.521-1.25s-0.88-0.97-1.24-1.52c-0.359-0.54-0.67-1.12-0.92-1.721c-0.25-0.609-0.449-1.239-0.569-1.87
	c-0.13-0.649-0.2-1.31-0.2-1.96c0-2.63,1.07-5.21,2.93-7.069c0.46-0.46,0.97-0.88,1.521-1.24c0.54-0.36,1.12-0.67,1.729-0.92
	c0.601-0.25,1.23-0.44,1.87-0.57c1.29-0.26,2.62-0.26,3.9,0c0.64,0.13,1.27,0.32,1.88,0.57c0.6,0.25,1.18,0.56,1.72,0.92
	c0.55,0.36,1.061,0.78,1.521,1.24c1.859,1.859,2.93,4.439,2.93,7.069c0,0.65-0.061,1.311-0.19,1.96
	c-0.13,0.631-0.33,1.261-0.58,1.87c-0.25,0.601-0.56,1.181-0.92,1.721c-0.359,0.55-0.779,1.06-1.239,1.52s-0.971,0.88-1.521,1.25
	c-0.54,0.36-1.12,0.66-1.72,0.91c-0.61,0.25-1.24,0.45-1.88,0.57C108.479,479.08,107.82,479.149,107.171,479.149z"/>
<path d="M404.83,479.151H145.405c-5.522,0-10-4.478-10-10s4.478-10,10-10h259.425c5.522,0,10,4.478,10,10
	S410.353,479.151,404.83,479.151z"/>
<g>
</g>
<g>
</g>
<g>
</g>
<g>
</g>
<g>
</g>
<g>
</g>
<g>
</g>
<g>
</g>
<g>
</g>
<g>
</g>
<g>
</g>
<g>
</g>
<g>
</g>
<g>
</g>
<g>
</g>
</svg>
